<mxfile host="app.diagrams.net" modified="2021-06-07T13:18:21.325Z" agent="5.0 (Macintosh; Intel Mac OS X 10_15_7) AppleWebKit/537.36 (KHTML, like Gecko) Chrome/91.0.4472.77 Safari/537.36" etag="K7LPs9ewOvGugETu9Psf" version="14.6.0" type="github">
  <diagram id="3s8G8CZAa96Vp-oVOaSo" name="Page-1">
    <mxGraphModel dx="1371" dy="677" grid="1" gridSize="10" guides="1" tooltips="1" connect="1" arrows="1" fold="1" page="1" pageScale="1" pageWidth="850" pageHeight="1100" math="0" shadow="0">
      <root>
        <mxCell id="0" />
        <mxCell id="1" parent="0" />
        <mxCell id="pEHC1JWFFljunX63cMDL-1" value="&lt;font style=&quot;font-size: 26px&quot;&gt;HTML, CSS, JavaScript&lt;/font&gt;" style="rounded=1;whiteSpace=wrap;html=1;shadow=1;" vertex="1" parent="1">
          <mxGeometry x="262.5" y="20" width="205" height="120" as="geometry" />
        </mxCell>
        <mxCell id="pEHC1JWFFljunX63cMDL-2" value="" style="shape=flexArrow;endArrow=classic;html=1;exitX=0.5;exitY=1;exitDx=0;exitDy=0;shadow=1;" edge="1" parent="1">
          <mxGeometry width="50" height="50" relative="1" as="geometry">
            <mxPoint x="365" y="156" as="sourcePoint" />
            <mxPoint x="365" y="236" as="targetPoint" />
          </mxGeometry>
        </mxCell>
        <mxCell id="pEHC1JWFFljunX63cMDL-3" value="&lt;font style=&quot;font-size: 30px&quot;&gt;Cordova&lt;/font&gt;" style="rhombus;whiteSpace=wrap;html=1;shadow=1;" vertex="1" parent="1">
          <mxGeometry x="267.5" y="260" width="195" height="210" as="geometry" />
        </mxCell>
        <mxCell id="pEHC1JWFFljunX63cMDL-4" value="" style="shape=flexArrow;endArrow=classic;html=1;exitX=0;exitY=0.5;exitDx=0;exitDy=0;shadow=1;" edge="1" parent="1">
          <mxGeometry width="50" height="50" relative="1" as="geometry">
            <mxPoint x="263.5" y="365" as="sourcePoint" />
            <mxPoint x="136" y="490" as="targetPoint" />
            <Array as="points">
              <mxPoint x="136" y="365" />
            </Array>
          </mxGeometry>
        </mxCell>
        <mxCell id="pEHC1JWFFljunX63cMDL-5" value="" style="shape=flexArrow;endArrow=classic;html=1;exitX=0.5;exitY=1;exitDx=0;exitDy=0;shadow=1;" edge="1" parent="1">
          <mxGeometry width="50" height="50" relative="1" as="geometry">
            <mxPoint x="365" y="474" as="sourcePoint" />
            <mxPoint x="365" y="564" as="targetPoint" />
          </mxGeometry>
        </mxCell>
        <mxCell id="pEHC1JWFFljunX63cMDL-6" value="" style="shape=flexArrow;endArrow=classic;html=1;exitX=1;exitY=0.5;exitDx=0;exitDy=0;shadow=1;" edge="1" parent="1">
          <mxGeometry width="50" height="50" relative="1" as="geometry">
            <mxPoint x="466.5" y="365" as="sourcePoint" />
            <mxPoint x="614" y="480" as="targetPoint" />
            <Array as="points">
              <mxPoint x="614" y="365" />
            </Array>
          </mxGeometry>
        </mxCell>
        <mxCell id="pEHC1JWFFljunX63cMDL-8" value="" style="verticalLabelPosition=bottom;verticalAlign=top;html=1;shadow=0;dashed=0;strokeWidth=1;shape=mxgraph.android.phone2;strokeColor=#c0c0c0;" vertex="1" parent="1">
          <mxGeometry x="60" y="510" width="140" height="320" as="geometry" />
        </mxCell>
        <mxCell id="pEHC1JWFFljunX63cMDL-9" value="&lt;font style=&quot;font-size: 34px&quot;&gt;iOS&lt;/font&gt;" style="text;html=1;align=center;verticalAlign=middle;resizable=0;points=[];autosize=1;strokeColor=none;" vertex="1" parent="1">
          <mxGeometry x="95" y="655" width="70" height="30" as="geometry" />
        </mxCell>
        <mxCell id="pEHC1JWFFljunX63cMDL-11" value="" style="aspect=fixed;pointerEvents=1;shadow=0;dashed=0;html=1;strokeColor=none;labelPosition=center;verticalLabelPosition=bottom;verticalAlign=top;align=center;fillColor=#00188D;shape=mxgraph.mscae.enterprise.android_phone" vertex="1" parent="1">
          <mxGeometry x="293" y="580" width="144" height="240" as="geometry" />
        </mxCell>
        <mxCell id="pEHC1JWFFljunX63cMDL-12" value="" style="verticalLabelPosition=bottom;html=1;verticalAlign=top;align=center;strokeColor=none;fillColor=#00BEF2;shape=mxgraph.azure.mobile;pointerEvents=1;" vertex="1" parent="1">
          <mxGeometry x="530" y="500" width="160" height="330" as="geometry" />
        </mxCell>
      </root>
    </mxGraphModel>
  </diagram>
</mxfile>
